{
	"asset":{
		"generator":"Khronos glTF Blender I/O v3.6.27",
		"version":"2.0"
	},
	"extensionsUsed":[
		"KHR_materials_specular",
		"KHR_materials_ior"
	],
	"scene":0,
	"scenes":[
		{
			"name":"Scene",
			"nodes":[
				0
			]
		}
	],
	"nodes":[
		{
			"mesh":0,
			"name":"Butene.mol",
			"rotation":[
				0.7071068286895752,
				0,
				0,
				0.7071068286895752
			]
		}
	],
	"materials":[
		{
			"doubleSided":true,
			"extensions":{
				"KHR_materials_specular":{
					"specularColorFactor":[
						0.020080160244135427,
						0.020080160244135427,
						0.020080160244135427
					]
				},
				"KHR_materials_ior":{
					"ior":0.0010000000474974513
				}
			},
			"name":"k000000",
			"pbrMetallicRoughness":{
				"baseColorFactor":[
					0,
					0,
					0,
					1
				],
				"metallicFactor":0,
				"roughnessFactor":0.5962674021720886
			}
		},
		{
			"doubleSided":true,
			"extensions":{
				"KHR_materials_specular":{
					"specularColorFactor":[
						0.020080160244135427,
						0.020080160244135427,
						0.020080160244135427
					]
				},
				"KHR_materials_ior":{
					"ior":0.0010000000474974513
				}
			},
			"name":"kffffff",
			"pbrMetallicRoughness":{
				"metallicFactor":0,
				"roughnessFactor":0.5962674021720886
			}
		},
		{
			"doubleSided":true,
			"extensions":{
				"KHR_materials_specular":{
					"specularColorFactor":[
						0.020080160244135427,
						0.020080160244135427,
						0.020080160244135427
					]
				},
				"KHR_materials_ior":{
					"ior":0.0010000000474974513
				}
			},
			"name":"k808080",
			"pbrMetallicRoughness":{
				"baseColorFactor":[
					0.5040000081062317,
					0.5040000081062317,
					0.5040000081062317,
					1
				],
				"metallicFactor":0,
				"roughnessFactor":0.5962674021720886
			}
		}
	],
	"meshes":[
		{
			"name":"Butene.mol",
			"primitives":[
				{
					"attributes":{
						"POSITION":0,
						"NORMAL":1
					},
					"indices":2,
					"material":0
				},
				{
					"attributes":{
						"POSITION":3,
						"NORMAL":4
					},
					"indices":5,
					"material":1
				},
				{
					"attributes":{
						"POSITION":6,
						"NORMAL":7
					},
					"indices":8,
					"material":2
				}
			]
		}
	],
	"accessors":[
		{
			"bufferView":0,
			"componentType":5126,
			"count":4133,
			"max":[
				2.0931999683380127,
				0.8047000169754028,
				0.9221000075340271
			],
			"min":[
				-2.075399875640869,
				-0.6942000389099121,
				-1.007099986076355
			],
			"type":"VEC3"
		},
		{
			"bufferView":1,
			"componentType":5126,
			"count":4133,
			"type":"VEC3"
		},
		{
			"bufferView":2,
			"componentType":5123,
			"count":15360,
			"type":"SCALAR"
		},
		{
			"bufferView":3,
			"componentType":5126,
			"count":8243,
			"max":[
				2.9063000679016113,
				1.6542999744415283,
				1.7549999952316284
			],
			"min":[
				-2.8582000732421875,
				-1.6333999633789062,
				-1.8360999822616577
			],
			"type":"VEC3"
		},
		{
			"bufferView":4,
			"componentType":5126,
			"count":8243,
			"type":"VEC3"
		},
		{
			"bufferView":5,
			"componentType":5123,
			"count":30720,
			"type":"SCALAR"
		},
		{
			"bufferView":6,
			"componentType":5126,
			"count":26261,
			"max":[
				2.732300043106079,
				1.480299949645996,
				1.5809999704360962
			],
			"min":[
				-2.6842000484466553,
				-1.459399938583374,
				-1.6620999574661255
			],
			"type":"VEC3"
		},
		{
			"bufferView":7,
			"componentType":5126,
			"count":26261,
			"type":"VEC3"
		},
		{
			"bufferView":8,
			"componentType":5123,
			"count":94752,
			"type":"SCALAR"
		}
	],
	"bufferViews":[
		{
			"buffer":0,
			"byteLength":49596,
			"byteOffset":0,
			"target":34962
		},
		{
			"buffer":0,
			"byteLength":49596,
			"byteOffset":49596,
			"target":34962
		},
		{
			"buffer":0,
			"byteLength":30720,
			"byteOffset":99192,
			"target":34963
		},
		{
			"buffer":0,
			"byteLength":98916,
			"byteOffset":129912,
			"target":34962
		},
		{
			"buffer":0,
			"byteLength":98916,
			"byteOffset":228828,
			"target":34962
		},
		{
			"buffer":0,
			"byteLength":61440,
			"byteOffset":327744,
			"target":34963
		},
		{
			"buffer":0,
			"byteLength":315132,
			"byteOffset":389184,
			"target":34962
		},
		{
			"buffer":0,
			"byteLength":315132,
			"byteOffset":704316,
			"target":34962
		},
		{
			"buffer":0,
			"byteLength":189504,
			"byteOffset":1019448,
			"target":34963
		}
	],
	"buffers":[
		{
			"byteLength":1208952,
			"uri":"data:application/octet-stream;base64,"
		}
	]
}
